<?xml version="1.0" standalone="no"?>
<!DOCTYPE svg PUBLIC "-//W3C//DTD SVG 20010904//EN"
 "http://www.w3.org/TR/2001/REC-SVG-20010904/DTD/svg10.dtd">
<svg version="1.0" xmlns="http://www.w3.org/2000/svg"
 width="518.000000pt" height="550.000000pt" viewBox="0 0 518.000000 550.000000"
 preserveAspectRatio="xMidYMid meet">

<g transform="translate(0.000000,550.000000) scale(0.100000,-0.100000)"
fill="#000000" stroke="none">
<path d="M2035 4809 c-33 -4 -87 -10 -120 -14 -140 -13 -351 -63 -504 -119
-295 -107 -602 -329 -749 -541 -23 -33 -55 -79 -72 -103 -16 -23 -30 -45 -30
-47 0 -2 -14 -28 -31 -57 -80 -135 -158 -357 -211 -603 -19 -86 -22 -133 -22
-335 -1 -210 2 -246 22 -334 42 -184 99 -326 189 -468 61 -97 188 -262 237
-307 14 -14 26 -28 26 -32 0 -4 -57 15 -128 43 -168 66 -162 64 -162 41 0 -48
205 -234 370 -336 163 -100 457 -211 635 -240 17 -3 61 -11 99 -17 54 -10 70
-10 76 0 4 7 -11 51 -36 104 -160 339 -136 612 75 829 110 114 261 207 426
262 56 19 68 31 55 56 -16 29 -59 166 -80 257 -15 62 -21 123 -22 212 -1 147
14 209 71 298 40 62 70 87 159 138 66 37 79 63 78 161 -1 40 2 74 6 75 3 2 8
17 10 33 1 17 7 33 13 37 6 5 3 8 -6 8 -9 0 -16 7 -16 15 0 8 4 12 9 9 4 -3 8
2 8 10 0 9 5 16 11 16 5 0 7 5 4 10 -4 6 -9 8 -13 6 -4 -2 -7 6 -7 19 0 13 3
21 8 18 7 -4 8 2 12 87 5 88 9 115 18 128 6 8 6 12 -2 12 -6 0 -9 10 -7 23 3
12 5 24 5 27 1 3 5 -1 10 -9 7 -10 9 -7 8 12 -1 15 -5 27 -9 27 -5 0 -8 7 -8
16 0 8 5 12 10 9 6 -4 10 7 10 25 0 17 -4 29 -9 26 -5 -4 -7 3 -4 15 5 16 8
18 15 7 6 -9 7 -6 3 10 -4 13 -1 29 6 38 10 13 10 17 -1 24 -12 7 -11 11 1 26
11 13 11 18 1 21 -6 3 -9 9 -6 15 7 11 15 60 17 105 1 15 6 20 20 17 15 -2 17
0 7 11 -6 8 -17 13 -23 11 -7 -1 -9 -1 -5 1 4 2 4 12 1 21 -5 14 -2 14 17 -3
14 -12 20 -14 15 -5 -16 26 -15 49 2 52 15 3 15 4 1 19 -12 11 -13 20 -6 33 7
12 7 21 0 28 -8 8 -8 17 -1 31 10 18 18 19 107 13 193 -14 378 -57 647 -152
72 -25 144 -49 160 -54 17 -4 56 -19 87 -33 31 -15 131 -51 222 -82 143 -48
178 -56 263 -60 66 -4 91 -2 78 4 -11 5 -51 10 -90 10 -58 1 -100 11 -250 62
-99 34 -202 72 -229 86 -27 14 -59 26 -70 28 -12 2 -77 23 -146 48 -231 84
-451 143 -575 153 -33 3 -96 9 -140 14 -93 12 -453 11 -540 -1z"/>
<path d="M4875 4694 c19 -43 17 -168 -3 -244 -28 -105 -74 -235 -106 -298 -33
-64 -47 -102 -40 -102 7 0 104 205 104 219 0 6 6 25 14 43 40 95 51 159 51
287 0 81 -3 105 -14 109 -11 4 -12 0 -6 -14z"/>
<path d="M4278 4423 c7 -3 16 -2 19 1 4 3 -2 6 -13 5 -11 0 -14 -3 -6 -6z"/>
<path d="M4133 4413 c15 -2 37 -2 50 0 12 2 0 4 -28 4 -27 0 -38 -2 -22 -4z"/>
<path d="M4228 4413 c6 -2 18 -2 25 0 6 3 1 5 -13 5 -14 0 -19 -2 -12 -5z"/>
<path d="M4704 4028 c-4 -7 -14 -23 -22 -35 -8 -13 -10 -23 -6 -23 9 0 48 70
39 70 -2 0 -7 -6 -11 -12z"/>
<path d="M4640 3928 c-15 -21 -17 -28 -6 -19 16 13 41 51 33 51 -2 0 -14 -15
-27 -32z"/>
<path d="M2521 3148 c46 -164 141 -308 232 -351 44 -21 127 -38 127 -26 0 5
-10 9 -21 9 -46 0 -103 26 -150 68 -85 76 -130 158 -169 302 -10 35 -22 66
-28 68 -6 2 -3 -26 9 -70z"/>
<path d="M3338 3212 c7 -5 10 -16 6 -25 -8 -21 11 -139 38 -237 11 -41 49
-145 83 -230 35 -85 71 -182 80 -214 23 -79 17 -202 -13 -271 -13 -30 -16 -42
-7 -30 24 31 55 142 55 196 0 52 -37 180 -77 269 -84 186 -143 387 -143 491 0
50 -3 59 -17 59 -13 0 -15 -2 -5 -8z"/>
<path d="M2421 2831 c-6 -11 -38 -88 -71 -173 -109 -275 -96 -376 74 -581 32
-38 190 -183 228 -208 5 -3 6 -13 2 -22 -5 -14 -15 -11 -72 19 -139 74 -248
170 -287 252 -9 17 -22 32 -30 32 -23 0 -97 -98 -222 -295 -14 -22 -112 -221
-136 -275 -33 -76 -98 -287 -118 -383 -37 -178 -54 -357 -34 -363 6 -2 28 22
50 53 55 78 103 131 225 253 133 134 162 158 287 242 145 98 268 153 430 193
86 21 317 22 403 1 82 -20 194 -60 238 -87 19 -11 36 -18 39 -16 2 2 -14 28
-36 58 -22 30 -53 72 -68 94 -65 90 -97 134 -161 222 -37 51 -91 126 -120 167
l-53 74 -39 -41 -39 -42 -35 34 c-20 19 -36 38 -36 41 0 4 16 15 35 26 29 15
40 17 65 7 16 -6 30 -9 30 -7 0 5 -50 82 -67 104 -7 8 -35 47 -62 85 -28 39
-72 99 -98 134 -27 36 -59 82 -73 102 -53 79 -221 309 -230 314 -5 3 -14 -3
-19 -14z m215 -443 c20 -17 41 -43 47 -57 15 -38 25 -151 12 -152 -68 -7 -161
28 -193 71 -16 21 -23 47 -25 94 -3 73 -3 73 75 75 40 1 53 -4 84 -31z"/>
<path d="M2908 2773 c6 -2 18 -2 25 0 6 3 1 5 -13 5 -14 0 -19 -2 -12 -5z"/>
<path d="M1977 2408 c-89 -48 -239 -201 -288 -293 -54 -100 -64 -144 -64 -285
0 -102 4 -150 18 -195 26 -85 98 -235 113 -235 7 0 18 19 25 43 36 135 159
400 254 547 34 52 101 137 149 188 l89 93 -19 41 c-58 128 -156 162 -277 96z"/>
<path d="M3755 2420 c95 -14 191 -81 295 -205 133 -157 169 -255 171 -455 1
-142 16 -130 18 15 2 160 -50 294 -170 441 -112 137 -229 215 -318 213 l-46
-1 50 -8z"/>
<path d="M3121 2295 c-30 -80 -25 -135 13 -135 6 0 5 5 -2 12 -17 17 -15 91 3
135 8 20 13 38 11 40 -2 3 -13 -21 -25 -52z"/>
<path d="M3540 2188 c0 -4 21 -30 46 -60 61 -71 180 -251 243 -366 82 -152
153 -331 210 -532 4 -13 10 -20 13 -15 5 10 -70 258 -91 299 -6 12 -30 66 -54
121 -72 165 -250 446 -331 524 -20 19 -36 32 -36 29z"/>
<path d="M4198 1574 c-9 -32 -15 -60 -13 -62 5 -6 37 98 33 109 -2 7 -11 -15
-20 -47z"/>
<path d="M4162 1475 c-17 -37 -14 -45 4 -12 9 16 14 31 11 33 -2 2 -9 -7 -15
-21z"/>
<path d="M4204 1270 c42 -13 87 -47 126 -96 32 -40 52 -53 33 -21 -36 61 -121
127 -162 126 l-26 -1 29 -8z"/>
<path d="M4101 1224 c-2 -35 37 -150 59 -176 l20 -23 -20 45 c-11 25 -28 74
-39 110 -10 36 -20 55 -20 44z"/>
<path d="M4437 1222 c6 -4 13 -21 16 -37 4 -27 4 -27 6 8 1 29 -3 37 -16 37
-12 0 -14 -3 -6 -8z"/>
<path d="M3445 1132 c-32 -20 -99 -90 -108 -113 -4 -11 -8 -10 -21 6 -8 11
-16 27 -16 36 0 41 -60 50 -60 9 0 -25 33 -92 54 -109 12 -10 16 -32 16 -83 0
-73 15 -123 46 -149 21 -17 176 -49 239 -49 81 0 214 57 247 104 28 40 -13
144 -84 217 -43 45 -146 111 -159 103 -4 -2 -10 -23 -14 -46 -8 -45 -28 -99
-52 -135 -24 -36 -25 -23 -3 34 24 63 29 171 9 184 -23 14 -62 10 -94 -9z"/>
<path d="M4380 1008 c0 -40 -2 -84 -5 -98 -3 -14 2 -7 9 15 17 47 20 141 6
150 -6 4 -10 -21 -10 -67z"/>
</g>
</svg>
